<svg id="canvas" height="auto" xmlns="http://www.w3.org/2000/svg" version="1.1" xmlns:xlink="http://www.w3.org/1999/xlink" xmlns:svgjs="http://svgjs.dev/svgjs" viewBox="0 0 900 512" width="auto" style="width: auto; height: auto;"><rect width="900" height="512" fill="#000000ff"/><path d="M109.04269438926667 294.89491753613834C73.27099506970819 313.6056424368197 33.881039206629964 314.6897301755805 -8.397102996089359 319.0469904744582C-50.67524519880868 323.4042507733359 -104.73072110338268 336.1491559608945 -144.6261588270492 321.03847932940437C-184.5215965507157 305.9278026979142 -215.64030117823972 260.8544759130425 -247.76972933808844 228.38293068551707C-279.89915749793715 195.91138545799163 -320.53405634256706 167.69002320582103 -337.40272778614155 126.20920796425139C-354.27139922971605 84.7283927226818 -348.84114655278194 25.847638080813397 -348.9817579995354 -20.501960763900513C-349.1223694462888 -66.85155960861442 -354.6881582545491 -113.67510537749808 -338.2463964666622 -151.88838510403215C-321.8046346787753 -190.10166483056622 -280.34151083414326 -218.69546262032588 -250.3311872722139 -249.78163912310492C-220.32086371028453 -280.86781562588396 -200.22206941709229 -321.9219348588634 -158.184455095086 -338.4054441207063C-116.14684077307973 -354.88895338254923 -48.14657384552436 -349.0919041319287 1.894498659823796 -348.68269469416254C51.93557116517195 -348.2734852563964 105.54990946155664 -352.7139323318777 142.0619799370029 -335.95018749410957C178.5740504124492 -319.18644265634146 192.97479995331742 -279.5190099896233 220.96692151250136 -248.1002256675537C248.9590430716853 -216.6814413454841 292.92080677258696 -187.03366009359206 310.0147092921068 -147.437481561692C327.1086118116266 -107.84130302979196 322.6425548755491 -55.876400353948725 323.5303366296205 -10.52315447615348C324.4181183836919 34.830091401641766 334.89094043459477 88.46436111399225 315.34139981653493 124.68199370507955C295.7918591984751 160.89962629616684 240.6162104924731 178.41382043186036 206.2330929212617 206.78264107037012C171.84997535005027 235.15146170887988 144.81439370882515 276.18419263545695 109.04269438926667 294.89491753613834C73.27099506970819 313.6056424368197 33.881039206629964 314.6897301755805 -8.397102996089359 319.0469904744582 " fill="url(#SvgjsLinearGradient1374)"/><defs><linearGradient gradientTransform="matrix(1,0,0,1,0,0)" id="SvgjsLinearGradient1374"><stop stop-color="#e71989ff" offset="0"/><stop stop-color="#e77719ff" offset="1"/></linearGradient><linearGradient gradientTransform="matrix(1,0,0,1,0,0)" id="SvgjsLinearGradient1375"><stop stop-color="#e71989ff" offset="0"/><stop stop-color="#e77719ff" offset="1"/></linearGradient></defs><path d="M1033.647830971216 938.4160608599391C991.6120523509447 951.7688969569476 929.8018542345169 929.9952388634541 882.6288825251761 925.5890917944304C835.4559108158353 921.1829447254066 788.3184755888096 933.0066047411225 750.6100007151713 911.9791784457967C712.9015258415328 890.951752150471 687.6225806456125 832.8558016400444 656.3780332833454 799.4245340224757C625.1334859210784 765.9932664049069 580.7220215042515 743.2409786960714 563.142716541569 711.3915727403842C545.5634115788865 679.542166784697 550.5836069469276 648.4697085342374 550.9022035072502 608.3280982883525C551.2208000675728 568.1864880424678 548.7487657714273 512.0359434355858 565.0542959035047 470.54191126507544C581.359826035582 429.04787909456513 619.8398915731981 392.2819920809427 648.7353842997144 359.3639052652906C677.6308770262307 326.4458184496385 700.8146049851945 287.21870132681687 738.4272522626026 273.033390371163C776.0398995400107 258.8480794155092 830.2682425365791 274.1059212809479 874.411267964163 274.25203953136764C918.554293391747 274.3981577817874 967.7822533719641 260.47662043814796 1003.2854048281063 273.9100998736815C1038.7885562842484 287.343579309215 1059.8066758896175 325.36016316584846 1087.4301767010159 354.85291614456867C1115.0536775124142 384.34566912328887 1149.5283529402275 410.6888329121421 1169.026409696497 450.8666177460027C1188.5244664527663 491.04440257986334 1198.1775103152 549.5711789255417 1204.4185172386328 595.9196251477324C1210.6595241620653 642.2680713699231 1218.068278402398 687.3652200683725 1206.472451237093 728.957295079147C1194.8766240717882 770.5493700899215 1163.64765762445 810.5622809155807 1134.8435542468037 845.4720752123794C1106.0394508691577 880.3818695091782 1075.6836095914873 925.0632247629305 1033.647830971216 938.4160608599391C991.6120523509447 951.7688969569476 929.8018542345169 929.9952388634541 882.6288825251761 925.5890917944304 " fill="url(#SvgjsLinearGradient1375)" transform="matrix(-1,1.2246467991473532e-16,-1.2246467991473532e-16,-1,1762.5660400390625,1209.6936645507812)"/></svg>